<svg width="42" height="42" viewBox="0 0 42 42" fill="none" xmlns="http://www.w3.org/2000/svg">
<g clip-path="url(#clip0_10_88)">
<path d="M38.0601 10.5164H6.24711C6.09749 10.5479 5.92425 10.5636 5.74839 10.5636C4.29948 10.5636 3.12355 9.38814 3.12355 7.93978C3.12355 7.92403 3.12355 7.90567 3.12355 7.88992L36.7477 6.58062V3.45824C36.7608 3.35066 36.7687 3.22471 36.7687 3.09615C36.7687 1.38539 35.3828 0 33.6714 0C33.5428 0 33.4168 0.00787156 33.2934 0.0236147L3.43853 4.87512C1.41479 5.63341 0 7.55145 0 9.80009C0 9.82895 0 9.86044 0 9.8893V38.038C0 38.0459 0 38.0537 0 38.0642C0 40.2368 1.76389 42 3.93725 42H38.0601C40.2335 42 41.9974 40.2368 41.9974 38.0642C41.9974 38.0537 41.9974 38.0459 41.9974 38.0354V14.4233C41.9974 14.3918 42 14.3525 42 14.3157C42 12.214 40.2965 10.5112 38.194 10.5112C38.1467 10.5112 38.0995 10.5112 38.0549 10.5138L38.0601 10.5164ZM34.1229 28.8834C31.9495 28.8834 30.1856 27.1201 30.1856 24.9476C30.1856 22.775 31.9495 21.0118 34.1229 21.0118C36.2962 21.0118 38.0601 22.775 38.0601 24.9476C38.0601 27.1201 36.2962 28.8834 34.1229 28.8834Z" fill="white" fill-opacity="0.6"/>
</g>
<defs>
<clipPath id="clip0_10_88">
<rect width="42" height="42" fill="white"/>
</clipPath>
</defs>
</svg>
