<svg width="42" height="42" viewBox="0 0 42 42" fill="none" xmlns="http://www.w3.org/2000/svg">
<path d="M36.5623 36.5714C36.6647 38.8132 34.8744 40.6875 32.6301 40.6875H9.36993C7.12556 40.6875 5.33399 38.8132 5.43637 36.5714L6.50606 13.0659C6.53756 12.3637 7.11506 11.8124 7.81724 11.8124H34.1841C34.8862 11.8124 35.4637 12.3637 35.4952 13.0659L36.5623 36.5714ZM21.2428 1.31639C16.7829 1.18251 13.125 4.75776 13.125 9.18745V10.4999H15.75V9.18745C15.75 6.28814 18.1007 3.93745 21 3.93745C23.8993 3.93745 26.25 6.28814 26.25 9.18745V10.4999H28.875V9.5182C28.875 5.20532 25.5517 1.44501 21.2428 1.31639Z" fill="white" fill-opacity="0.6"/>
</svg>
