<svg width="163" height="40" viewBox="0 0 163 40" fill="none" xmlns="http://www.w3.org/2000/svg">
<g clip-path="url(#clip0_9_17)">
<path d="M32.7994 27.0429C31.888 27.0429 30.997 26.7726 30.2392 26.2663C29.4814 25.7599 28.8908 25.0402 28.542 24.1982C28.1932 23.3561 28.102 22.4296 28.2798 21.5357C28.4576 20.6418 28.8965 19.8207 29.5409 19.1762C30.1854 18.5318 31.0065 18.0929 31.9004 17.9151C32.7943 17.7372 33.7208 17.8285 34.5629 18.1773C35.4049 18.5261 36.1246 19.1167 36.631 19.8745C37.1373 20.6323 37.4076 21.5233 37.4076 22.4347C37.4135 23.0415 37.2984 23.6434 37.0689 24.2051C36.8394 24.7669 36.5002 25.2773 36.0711 25.7064C35.642 26.1355 35.1316 26.4747 34.5699 26.7042C34.0081 26.9337 33.4062 27.0488 32.7994 27.0429ZM41.2716 17.6343V14.4554H35.6678C34.7473 14.1334 33.7796 13.9669 32.8043 13.9625C31.1358 13.9936 29.5135 14.5168 28.1412 15.4664C26.7689 16.416 25.7075 17.7498 25.0904 19.3003C24.4733 20.8509 24.3279 22.5492 24.6724 24.1821C25.0169 25.815 25.8359 27.3098 27.0268 28.4789C28.2177 29.6481 29.7274 30.4394 31.3664 30.7537C33.0054 31.0681 34.7007 30.8913 36.2396 30.2457C37.7785 29.6001 39.0925 28.5144 40.0166 27.1248C40.9408 25.7351 41.4339 24.1035 41.4342 22.4347C41.4703 20.8641 41.0098 19.3221 40.1183 18.0286L41.2716 17.6343ZM14.1646 27.0429C13.2532 27.0429 12.3623 26.7726 11.6044 26.2663C10.8466 25.7599 10.256 25.0402 9.90721 24.1982C9.55843 23.3561 9.46717 22.4296 9.64498 21.5357C9.82278 20.6418 10.2617 19.8207 10.9061 19.1762C11.5506 18.5318 12.3717 18.0929 13.2656 17.9151C14.1595 17.7372 15.086 17.8285 15.9281 18.1773C16.7701 18.5261 17.4898 19.1167 17.9962 19.8745C18.5025 20.6323 18.7728 21.5233 18.7728 22.4347C18.7787 23.0415 18.6636 23.6434 18.4341 24.2051C18.2046 24.7669 17.8654 25.2773 17.4363 25.7064C17.0072 26.1355 16.4968 26.4747 15.9351 26.7042C15.3733 26.9337 14.7714 27.0488 14.1646 27.0429ZM14.1646 13.9576C12.496 13.9887 10.8738 14.5118 9.50148 15.4615C8.12914 16.4111 7.06783 17.7448 6.45071 19.2954C5.83359 20.846 5.68815 22.5442 6.03264 24.1772C6.37714 25.8101 7.19622 27.3049 8.38711 28.474C9.578 29.6431 11.0877 30.4345 12.7266 30.7488C14.3656 31.0631 16.0609 30.8864 17.5999 30.2408C19.1388 29.5952 20.4527 28.5095 21.3769 27.1198C22.301 25.7302 22.7942 24.0986 22.7945 22.4298C22.7994 21.3025 22.5783 20.1856 22.1444 19.1451C21.7104 18.1047 21.0724 17.1617 20.268 16.372C19.4635 15.5822 18.509 14.9617 17.4607 14.547C16.4124 14.1323 15.2916 13.9319 14.1646 13.9576ZM0 30.4337H3.98718V7.67866H0V30.4337ZM43.0163 30.4337H47.0034V14.4554H43.0163V30.4337ZM32.7994 36.1015C32.1963 36.1081 31.598 35.9942 31.0395 35.7664C30.481 35.5387 29.9736 35.2017 29.5471 34.7752C29.1206 34.3487 28.7836 33.8413 28.5559 33.2828C28.3281 32.7244 28.2142 32.126 28.2208 31.5229H24.1695C24.2452 33.7599 25.187 35.88 26.7962 37.4358C28.4055 38.9915 30.5562 39.8612 32.7945 39.8612C35.0328 39.8612 37.1835 38.9915 38.7927 37.4358C40.402 35.88 41.3438 33.7599 41.4194 31.5229H37.3682C37.3748 32.126 37.2608 32.7244 37.0331 33.2828C36.8053 33.8413 36.4683 34.3487 36.0418 34.7752C35.6153 35.2017 35.108 35.5387 34.5495 35.7664C33.991 35.9942 33.3927 36.1081 32.7895 36.1015M61.6658 20.7738C61.866 19.8101 62.4022 18.949 63.1786 18.3442C63.955 17.7393 64.9211 17.43 65.9044 17.4717C66.8791 17.422 67.8384 17.7302 68.6017 18.3383C69.3651 18.9465 69.8799 19.8126 70.0493 20.7738H61.6658ZM65.9931 13.9527C61.1976 13.9527 57.5505 17.6294 57.5505 22.5185C57.5505 27.4076 60.8822 30.897 66.0522 30.897C67.4126 30.9236 68.7636 30.666 70.0188 30.1407C71.2739 29.6154 72.4057 28.8339 73.3415 27.8462L70.6604 25.1996C69.3544 26.4465 67.9497 27.3484 66.1459 27.3484C65.141 27.3892 64.1532 27.079 63.352 26.4711C62.5508 25.8632 61.986 24.9955 61.7545 24.0168H74.1745V23.031C74.1745 17.5801 70.8083 13.9379 65.9832 13.9379M101.276 13.9379C100.375 13.9191 99.4786 14.0896 98.6467 14.4385C97.8147 14.7874 97.0652 15.3069 96.4465 15.9635V7.67866H92.4593V30.414H96.4465V21.7447C96.4465 19.4381 97.9251 17.8512 100.34 17.8512C102.617 17.8512 103.859 19.2509 103.859 21.7447V30.4337H107.846V21.0301C107.846 16.5944 105.076 13.9576 101.272 13.9576M84.0808 17.8216C84.8771 17.848 85.6579 18.0489 86.3681 18.4099C87.0783 18.771 87.7006 19.2835 88.1912 19.9113L90.9611 17.171C90.1404 16.1556 89.1003 15.3394 87.9189 14.7836C86.7375 14.2279 85.4455 13.9472 84.14 13.9625C81.893 13.9625 79.7381 14.8551 78.1492 16.444C76.5604 18.0328 75.6678 20.1877 75.6678 22.4347C75.6678 24.6816 76.5604 26.8366 78.1492 28.4254C79.7381 30.0142 81.893 30.9068 84.14 30.9068C85.4455 30.9222 86.7375 30.6415 87.9189 30.0857C89.1003 29.53 90.1404 28.7138 90.9611 27.6984L88.1912 24.9581C87.6935 25.5861 87.0648 26.098 86.3489 26.458C85.633 26.8181 84.8472 27.0177 84.0463 27.0429C82.8496 27.0001 81.7164 26.4936 80.8863 25.6305C80.0562 24.7675 79.5942 23.6154 79.5981 22.4179C79.6019 21.2204 80.0712 20.0714 80.9069 19.2136C81.7425 18.3559 82.8789 17.8567 84.0759 17.8216M54.8546 9.53671H50.8674V14.4652H48.7186V18.0286H50.8674V30.4583H54.8546V18.0286H57.033V14.48H54.8546V9.53671ZM44.9975 7.26466C44.4798 7.27437 43.9765 7.43656 43.5506 7.73094C43.1246 8.02531 42.7949 8.43879 42.6029 8.91962C42.4108 9.40044 42.3648 9.92725 42.4706 10.4341C42.5765 10.9409 42.8295 11.4053 43.198 11.769C43.5665 12.1328 44.034 12.3798 44.5422 12.479C45.0504 12.5783 45.5766 12.5255 46.0549 12.3272C46.5332 12.1289 46.9423 11.7939 47.2312 11.3642C47.52 10.9344 47.6757 10.4291 47.6786 9.91128C47.6848 9.5591 47.6194 9.20933 47.4864 8.88316C47.3534 8.55699 47.1556 8.26122 46.9049 8.01376C46.6542 7.76631 46.3559 7.57232 46.0281 7.44355C45.7002 7.31479 45.3496 7.25393 44.9975 7.26466ZM138.191 0.00492233V8.06802C135.177 8.06802 132.286 9.26542 130.155 11.3968C128.023 13.5282 126.826 16.419 126.826 19.4332C126.826 22.4475 128.023 25.3382 130.155 27.4696C132.286 29.601 135.177 30.7984 138.191 30.7984V38.8615C135.613 38.9025 133.053 38.4303 130.66 37.4722C128.267 36.5142 126.088 35.0895 124.25 33.2811C122.413 31.4727 120.954 29.3168 119.958 26.9389C118.962 24.5611 118.449 22.0088 118.449 19.4307C118.449 16.8527 118.962 14.3004 119.958 11.9226C120.954 9.54469 122.413 7.38879 124.25 5.5804C126.088 3.77202 128.267 2.34731 130.66 1.38925C133.053 0.431194 135.613 -0.0410508 138.191 4.01819e-06M138.467 15.9389V23.9428H147.856V33.3465H155.88V15.9389H138.467Z" fill="white"/>
</g>
<defs>
<clipPath id="clip0_9_17">
<rect width="162.149" height="40" fill="white"/>
</clipPath>
</defs>
</svg>
