<svg width="32" height="32" viewBox="0 0 32 32" fill="none" xmlns="http://www.w3.org/2000/svg">
<g clip-path="url(#clip0_11_781)">
<path fill-rule="evenodd" clip-rule="evenodd" d="M10.732 3H21.2225C25.4859 3 28.9545 6.46855 28.9545 10.732V21.2225C28.9545 25.486 25.486 28.9545 21.2225 28.9545H10.732C6.46855 28.9545 3 25.486 3 21.2225V10.732C3 6.46855 6.46855 3 10.732 3ZM21.2225 26.3435C24.0507 26.3435 26.3435 24.0507 26.3435 21.2225V10.732C26.3435 7.90373 24.0507 5.61102 21.2225 5.61102H10.732C7.90378 5.61102 5.61102 7.90373 5.61102 10.732V21.2225C5.61102 24.0507 7.90378 26.3435 10.732 26.3435H21.2225Z" fill="black"/>
<path fill-rule="evenodd" clip-rule="evenodd" d="M9.26453 15.9772C9.26453 12.2758 12.2758 9.26453 15.9773 9.26453C19.6787 9.26453 22.69 12.2758 22.69 15.9772C22.69 19.6786 19.6787 22.69 15.9773 22.69C12.2758 22.69 9.26453 19.6786 9.26453 15.9772ZM11.8755 15.9773C11.8755 18.2426 13.7119 20.079 15.9773 20.079C18.2425 20.079 20.079 18.2425 20.079 15.9773C20.079 13.7119 18.2426 11.8755 15.9773 11.8755C13.712 11.8755 11.8755 13.7119 11.8755 15.9773Z" fill="black"/>
<path d="M22.7028 10.9235C23.5912 10.9235 24.3113 10.2033 24.3113 9.31501C24.3113 8.42668 23.5912 7.70654 22.7028 7.70654C21.8145 7.70654 21.0944 8.42668 21.0944 9.31501C21.0944 10.2033 21.8145 10.9235 22.7028 10.9235Z" fill="black"/>
</g>
<defs>
<clipPath id="clip0_11_781">
<rect width="32" height="32" fill="white"/>
</clipPath>
</defs>
</svg>
